<svg xmlns="http://www.w3.org/2000/svg" viewBox="0 0 820 980" role="img" aria-labelledby="title desc">
  <title id="title">Anime female ninja reference</title>
  <desc id="desc">A stylized anime female ninja with a visible face, red scarf, dark armor, katana, and moonlit dojo lighting.</desc>
  <defs>
    <radialGradient id="moon" cx="50%" cy="28%" r="58%">
      <stop offset="0%" stop-color="#fff8d7"/>
      <stop offset="46%" stop-color="#f6e7b1"/>
      <stop offset="100%" stop-color="#b9923e"/>
    </radialGradient>
    <linearGradient id="hair" x1="0%" x2="100%" y1="12%" y2="88%">
      <stop offset="0%" stop-color="#16131a"/>
      <stop offset="55%" stop-color="#050507"/>
      <stop offset="100%" stop-color="#3a1216"/>
    </linearGradient>
    <linearGradient id="cloth" x1="18%" x2="90%" y1="0%" y2="100%">
      <stop offset="0%" stop-color="#24242c"/>
      <stop offset="58%" stop-color="#09090d"/>
      <stop offset="100%" stop-color="#020203"/>
    </linearGradient>
    <linearGradient id="red" x1="0%" x2="100%" y1="0%" y2="100%">
      <stop offset="0%" stop-color="#ff4a4a"/>
      <stop offset="45%" stop-color="#dc2626"/>
      <stop offset="100%" stop-color="#7f1010"/>
    </linearGradient>
    <linearGradient id="steel" x1="0%" x2="100%" y1="0%" y2="0%">
      <stop offset="0%" stop-color="#6b7280"/>
      <stop offset="42%" stop-color="#f8fafc"/>
      <stop offset="100%" stop-color="#9ca3af"/>
    </linearGradient>
    <filter id="glow" x="-40%" y="-40%" width="180%" height="180%">
      <feGaussianBlur stdDeviation="11" result="blur"/>
      <feColorMatrix in="blur" values="1 0 0 0 0.86 0 1 0 0 0.14 0 0 1 0 0.14 0 0 0 0.75 0"/>
      <feBlend in="SourceGraphic"/>
    </filter>
    <filter id="shadow" x="-30%" y="-20%" width="160%" height="150%">
      <feDropShadow dx="0" dy="18" stdDeviation="18" flood-color="#000" flood-opacity="0.55"/>
    </filter>
  </defs>

  <rect width="820" height="980" fill="#050506"/>
  <circle cx="595" cy="174" r="128" fill="url(#moon)" opacity="0.95"/>
  <path d="M0 328h820v652H0z" fill="#07080a"/>
  <g opacity="0.34">
    <path d="M67 314h686" stroke="#f6e7b1" stroke-width="3"/>
    <path d="M112 314v322M246 314v322M380 314v322M514 314v322M648 314v322" stroke="#f6e7b1" stroke-width="2"/>
    <path d="M70 416h686M70 528h686" stroke="#f6e7b1" stroke-width="2"/>
  </g>
  <path d="M88 812c112-58 230-88 354-88s222 30 292 88v168H88z" fill="#120c08"/>

  <g filter="url(#shadow)">
    <path d="M174 450c44-122 132-206 255-206 126 0 214 82 248 206-54-38-117-56-191-54-118 4-223 16-312 54Z" fill="url(#hair)"/>
    <path d="M241 831c14-167 75-278 185-333 104 54 168 165 191 333-95 44-222 45-376 0Z" fill="url(#cloth)"/>
    <path d="M294 804c19-94 47-167 84-219h94c42 52 73 125 94 219-72 30-162 30-272 0Z" fill="#111116"/>
    <path d="M253 582c-58 27-104 83-136 170l72 33c25-60 59-100 102-121Z" fill="#101014"/>
    <path d="M601 584c56 31 96 88 119 171l-76 28c-18-59-47-99-88-121Z" fill="#101014"/>
    <path d="M323 624h198l22 64H301Z" fill="url(#red)" filter="url(#glow)"/>

    <path d="M282 285c47-54 96-80 148-80 72 0 124 28 158 84 33 53 38 121 16 198-18 64-55 107-112 130-38 15-78 14-120-1-58-22-96-65-114-128-24-82-16-150 24-203Z" fill="#f1bf9d"/>
    <path d="M282 285c31-70 86-105 165-105 86 0 147 48 183 143-112-58-224-53-336 15-19-7-23-25-12-53Z" fill="url(#hair)"/>
    <path d="M263 374c51-74 114-111 189-111 72 0 126 31 163 92-31-20-63-30-96-30-44 0-82 15-114 45-36-21-74-31-114-31-14 0-23 12-28 35Z" fill="#060609"/>
    <path d="M270 401c45-28 91-36 139-24 49-15 98-9 148 17-6 46-21 81-45 106-27 28-60 42-99 42-41 0-75-14-102-43-24-25-38-58-41-98Z" fill="#f4c3a5"/>

    <path d="M318 384c24-13 51-13 78 2" fill="none" stroke="#110d0d" stroke-width="12" stroke-linecap="round"/>
    <path d="M447 386c28-15 57-14 86 3" fill="none" stroke="#110d0d" stroke-width="12" stroke-linecap="round"/>
    <ellipse cx="361" cy="420" rx="25" ry="18" fill="#1d1e27"/>
    <ellipse cx="490" cy="421" rx="25" ry="18" fill="#1d1e27"/>
    <circle cx="369" cy="414" r="7" fill="#f6e7b1"/>
    <circle cx="498" cy="415" r="7" fill="#f6e7b1"/>
    <path d="M420 445c-8 23-3 35 15 37" fill="none" stroke="#c98468" stroke-width="8" stroke-linecap="round"/>
    <path d="M372 510c40 21 81 20 123-1" fill="none" stroke="#9f3a3a" stroke-width="8" stroke-linecap="round"/>
    <path d="M276 524c83 58 187 61 313 8l-5 72c-122 62-226 58-312-12Z" fill="url(#red)"/>
    <path d="M353 236c7-75 38-129 93-161-10 75 3 129 40 160-43-21-87-20-133 1Z" fill="url(#hair)"/>

    <g transform="translate(144 626) rotate(-20)">
      <rect x="0" y="20" width="520" height="18" rx="9" fill="url(#steel)"/>
      <rect x="342" y="8" width="122" height="42" rx="11" fill="#101014"/>
      <rect x="362" y="12" width="20" height="34" rx="5" fill="url(#red)"/>
    </g>
    <path d="M528 593c46-12 78-6 98 20-13 23-46 30-98 20Z" fill="#f0bd9d"/>
    <path d="M207 606c-38 3-67 22-88 57 32 11 64 3 96-26Z" fill="#f0bd9d"/>
  </g>

  <g opacity="0.88">
    <path d="M92 180c74 37 157 46 248 26" stroke="#dc2626" stroke-width="6" stroke-linecap="round"/>
    <path d="M94 196c74 37 157 46 248 26" stroke="#f6e7b1" stroke-width="2" stroke-linecap="round"/>
    <path d="M640 716c36-58 77-79 122-63" stroke="#dc2626" stroke-width="6" stroke-linecap="round"/>
    <path d="M638 732c36-58 77-79 122-63" stroke="#f6e7b1" stroke-width="2" stroke-linecap="round"/>
  </g>
</svg>
